{"title":"Contagion.2011.TS.XViD-ILLUMINATI","uid":6766204,"size":1564706417,"categoryP":"video","categoryS":"movies","magnet":"?xt=urn:btih:00aff2f1f6e73c4f879268d6a3cc8cc84aef57d2&amp;dn=Contagion.2011.TS.XViD-ILLUMINATI&amp;tr=udp%3A%2F%2Ftracker.openbittorrent.com%3A80&amp;tr=udp%3A%2F%2Fopen.demonii.com%3A1337&amp;tr=udp%3A%2F%2Ftracker.coppersurfer.tk%3A6969&amp;tr=udp%3A%2F%2Fexodus.desync.com%3A6969","seeders":0,"leechers":0,"uploader":"crazy-torrent","files":2,"time":1319395348,"description":"  _  _ _  _ _  _ \n   |  | |  | |  | \n   |/\\| |/\\| |/\\|,\n   ~  ~ ~  ~ ~  ~~\n                  \n   _, __,  _, ___,\n  / ` |_) /_\\ ` / \n  \\ , | \\ | |  /  \n   ~  ~ ~ ~ ~ ~~~ \n                  \n , _    ___  _, __,\n \\ |     |  / \\ |_)\n  \\| ~~  |  \\ / | \\\n   )     ~   ~  ~ ~\n  ~'               \n  __, __, _, _ ___ \n  |_) |_  |\\ |  |  \n  | \\ |   | \\|  | ,\n  ~ ~ ~~~ ~  ~  ~ ~\n                   \n     _,  _, _, _\n    / ` / \\ |\\/|\n    \\ , \\ / |  |\n     ~   ~  ~  ~\n\nle\n   Description\n\nIMDB: http://www.imdb.com/title/tt1598778/\nSIZE: 1.37 gb\nLENGTH: 1H 41MN\nHEIGHT: 384\nSUBTITLES: ENGLISH\nWIDTH: 720\n\n\nINFO:\nVideo\nID : 0\nFormat : MPEG-4 Visual\nFormat profile : Advanced Simple@L5\nFormat settings, BVOP : 2\nFormat settings, QPel : No\nFormat settings, GMC : No warppoints\nFormat settings, Matrix : Default (H.263)\nMuxing mode : Packed bitstream\nCodec ID : XVID\nCodec ID/Hint : XviD\nDuration : 1h 41mn\nBit rate : 1 917 Kbps\nWidth : 720 pixels\nHeight : 384 pixels\nDisplay aspect ratio : 1.875\nFrame rate : 29.970 fps\nColor space : YUV\nChroma subsampling : 4:2:0\nBit depth : 8 bits\nScan type : Progressive\nCompression mode : Lossy\nBits/(Pixel*Frame) : 0.231\nStream size : 1.36 GiB (93%)\nWriting library : XviD 64\n\nAudio\nID : 1\nFormat : MPEG Audio\nFormat version : Version 1\nFormat profile : Layer 3\nMode : Joint stereo\nMode extension : MS Stereo\nCodec ID : 55\nCodec ID/Hint : MP3\nDuration : 1h 41mn\nBit rate mode : Constant\nBit rate : 128 Kbps\nChannel(s) : 2 channels\nSampling rate : 44.1 KHz\nCompression mode : Lossy\nStream size : 92.8 MiB (6%)\nAlignment : Split accross interleaves\nInterleave, duration : 33 ms (1.00 video frame)\n\n\nPlot:\nA thriller centered on the threat posed by a deadly disease and an international team of doctors contracted by the CDC to deal with the outbreak. \n\nCRAZY-TORRENT..COM\n","torrent":{"xt":"urn:btih:00aff2f1f6e73c4f879268d6a3cc8cc84aef57d2","amp;dn":"Contagion.2011.TS.XViD-ILLUMINATI","amp;tr":["udp%3A%2F%2Ftracker.openbittorrent.com%3A80","udp%3A%2F%2Fopen.demonii.com%3A1337","udp%3A%2F%2Ftracker.coppersurfer.tk%3A6969","udp%3A%2F%2Fexodus.desync.com%3A6969"],"infoHash":"00aff2f1f6e73c4f879268d6a3cc8cc84aef57d2","infoHashBuffer":{"type":"Buffer","data":[0,175,242,241,246,231,60,79,135,146,104,214,163,204,140,200,74,239,87,210]},"announce":[],"urlList":[]}}